# xmcd
#
# Track frame offsets:
#	150
#	17282
#	34057
#	51535
#	63460
#	77390
#	92357
#	104750
#	121929
#	138917
#	153770
#	164305
#
# Disc length: 2426 seconds
#
# Revision: 0
# Processed by: cddbd v1.5.1PL2 Copyright (c) Steve Scherf et al.
# Submitted via: audiograbber 1.83.01
#
DISCID=8b09780c
DTITLE=Kevin Spencer Family - Flow Through Me
DYEAR=1999
DGENRE=Southern Gospel
TTITLE0=The Voice
TTITLE1=Who Am I
TTITLE2=The Greatest Story
TTITLE3=I'd Be Willing To Run All The Way
TTITLE4=I'll Never Be The Same
TTITLE5=Flow Through Me
TTITLE6=Too Much To Gain To Lose
TTITLE7=Had It Not Been
TTITLE8=His Hand Reached Further Down
TTITLE9=Let's Pray Down A Burden
TTITLE10=I'm Rich
TTITLE11=Without Him
EXTD=
EXTT0=
EXTT1=
EXTT2=
EXTT3=
EXTT4=
EXTT5=
EXTT6=
EXTT7=
EXTT8=
EXTT9=
EXTT10=
EXTT11=
PLAYORDER=
